<svg id="SVGRoot" version="1.1" viewBox="0 0 32 32" xmlns="http://www.w3.org/2000/svg">
 <g>
  <path d="m18.242 3.7617-13.17 13.17 11.844 11.844c1.3527 1.3527 3.5965 1.3527 4.9492 0l8.2207-8.2188c1.3527-1.3527 1.3527-3.5984 0-4.9512zm0 4.2441 9.7227 9.7227c0.21422 0.21422 0.21422 0.49281 0 0.70703l-8.2207 8.2188c-0.21422 0.21422-0.49281 0.21422-0.70703 0l-9.7227-9.7227z" color="#000000" color-rendering="auto" dominant-baseline="auto" image-rendering="auto" shape-rendering="auto" solid-color="#000000" style="font-feature-settings:normal;font-variant-alternates:normal;font-variant-caps:normal;font-variant-ligatures:normal;font-variant-numeric:normal;font-variant-position:normal;isolation:auto;mix-blend-mode:normal;shape-padding:0;text-decoration-color:#000000;text-decoration-line:none;text-decoration-style:solid;text-indent:0;text-orientation:mixed;text-transform:none;white-space:normal"/>
  <path d="m23.623 1.1758c-0.3932 0.061025-0.7688 0.20044-1.1094 0.37891-1.3623 0.71387-2.5553 2.101-3.8066 4.291l2.6055 1.4902c0.93484-1.6361 1.7781-2.4788 2.2988-2.8633-0.011937 0.50504-0.099533 1.2824-0.58203 2.4551-0.67467 1.6398-1.942 3.7804-3.998 6.2305l2.2969 1.9297c2.2168-2.6417 3.6493-5.0116 4.4746-7.0176 0.82534-2.006 1.1443-3.6123 0.67774-5.0605-0.23327-0.7241-0.81528-1.4706-1.6406-1.7422-0.41268-0.1358-0.8236-0.15282-1.2168-0.091797z" color="#000000" color-rendering="auto" dominant-baseline="auto" image-rendering="auto" shape-rendering="auto" solid-color="#000000" style="font-feature-settings:normal;font-variant-alternates:normal;font-variant-caps:normal;font-variant-ligatures:normal;font-variant-numeric:normal;font-variant-position:normal;isolation:auto;mix-blend-mode:normal;shape-padding:0;text-decoration-color:#000000;text-decoration-line:none;text-decoration-style:solid;text-indent:0;text-orientation:mixed;text-transform:none;white-space:normal"/>
  <path d="m22.036 14.653a2.3883 2.3883 0 0 1-2.3883 2.3883 2.3883 2.3883 0 0 1-2.3883-2.3883 2.3883 2.3883 0 0 1 2.3883-2.3883 2.3883 2.3883 0 0 1 2.3883 2.3883z"/>
  <path d="m4.9782 18.669s-5.6148 7.1725-3.2232 10.21c1.3597 1.7269 5.5367 1.7112 6.6892-0.06389 2.1403-3.2963-3.466-10.146-3.466-10.146z"/>
 </g>
</svg>
