<svg id="SVGRoot" version="1.1" viewBox="0 0 32 32" xmlns="http://www.w3.org/2000/svg">
 <g>
  <path d="m7.1104 3.517c-1.2451 0-2.2475 1.0024-2.2475 2.2475v22.475c0 1.2451 1.0024 2.2475 2.2475 2.2475h17.98c1.2451 0 2.2475-1.0024 2.2475-2.2475v-22.475c0-1.2451-1.0024-2.2475-2.2475-2.2475h-3.1079l0.31606 0.15803 0.07024 0.048287c0.93479 0.6621 1.4781 1.2662 1.6439 2.0083 0.16585 0.74211-0.04599 1.2003-0.04609 1.2028l-0.0461 1.0777h-15.403l-0.23704-0.80771c-0.10603-0.36126-0.26856-1.0018-0.028533-1.6944 0.24002-0.69267 0.78428-1.2598 1.611-1.8064l0.05487-0.037313 0.2985-0.14925zm4.0166 8.1627a1.6501 1.6763 0 0 1 1.6505 1.6747 1.6501 1.6763 0 0 1-1.6505 1.6769 1.6501 1.6763 0 0 1-1.6505-1.6769 1.6501 1.6763 0 0 1 1.6505-1.6747zm4.6399 0.11194h6.7426c0.62257 0 1.1238 0.5012 1.1238 1.1238v0.75283c0 0.62257-0.5012 1.1238-1.1238 1.1238h-6.7426c-0.62256 0-1.1238-0.5012-1.1238-1.1238v-0.75283c0-0.62257 0.5012-1.1238 1.1238-1.1238zm-4.7189 5.3401a1.6501 1.6763 0 0 1 1.6505 1.6747 1.6501 1.6763 0 0 1-1.6505 1.6769 1.6501 1.6763 0 0 1-1.6505-1.6769 1.6501 1.6763 0 0 1 1.6505-1.6747zm4.7189 0.07243h6.7426c0.62257 0 1.1238 0.5012 1.1238 1.1238v0.75283c0 0.62257-0.5012 1.1238-1.1238 1.1238h-6.7426c-0.62256 0-1.1238-0.5012-1.1238-1.1238v-0.75283c0-0.62256 0.5012-1.1238 1.1238-1.1238zm-4.6663 5.3269a1.6501 1.6763 0 0 1 1.6505 1.6747 1.6501 1.6763 0 0 1-1.6505 1.6769 1.6501 1.6763 0 0 1-1.6505-1.6769 1.6501 1.6763 0 0 1 1.6505-1.6747zm4.6663 0.0834h6.7426c0.62257 0 1.1238 0.5012 1.1238 1.1238v0.75283c0 0.62256-0.5012 1.1238-1.1238 1.1238h-6.7426c-0.62256 0-1.1238-0.5012-1.1238-1.1238v-0.75283c0-0.62256 0.5012-1.1238 1.1238-1.1238z"/>
  <path d="m13.288 3.587c0-2.8114 5.6227-2.8114 5.6227 0l1.8742 0.93712c1.3927 0.98644 0.95819 1.3611 0.93712 1.8742h-11.245c-0.15772-0.53737-0.25529-1.0859 0.93712-1.8742z"/>
 </g>
</svg>
