<?xml version="1.0" encoding="UTF-8" standalone="no"?>
<!-- Created with Inkscape (http://www.inkscape.org/) -->

<svg
   xmlns:dc="http://purl.org/dc/elements/1.1/"
   xmlns:cc="http://creativecommons.org/ns#"
   xmlns:rdf="http://www.w3.org/1999/02/22-rdf-syntax-ns#"
   xmlns:svg="http://www.w3.org/2000/svg"
   xmlns="http://www.w3.org/2000/svg"
   xmlns:sodipodi="http://sodipodi.sourceforge.net/DTD/sodipodi-0.dtd"
   xmlns:inkscape="http://www.inkscape.org/namespaces/inkscape"
   width="32px"
   height="32px"
   viewBox="0 0 32 32"
   version="1.1"
   id="SVGRoot"
   inkscape:version="0.92.4 (5da689c313, 2019-01-14)"
   sodipodi:docname="clipboard.svg">
  <defs
     id="defs4518" />
  <sodipodi:namedview
     id="base"
     pagecolor="#ffffff"
     bordercolor="#666666"
     borderopacity="1.0"
     inkscape:pageopacity="0.0"
     inkscape:pageshadow="2"
     inkscape:zoom="12.31216"
     inkscape:cx="35.483372"
     inkscape:cy="30.654631"
     inkscape:document-units="px"
     inkscape:current-layer="layer1"
     showgrid="false"
     inkscape:window-width="1920"
     inkscape:window-height="1017"
     inkscape:window-x="1912"
     inkscape:window-y="-8"
     inkscape:window-maximized="1"
     inkscape:grid-bbox="true">
    <inkscape:grid
       type="xygrid"
       id="grid5074" />
  </sodipodi:namedview>
  <metadata
     id="metadata4521">
    <rdf:RDF>
      <cc:Work
         rdf:about="">
        <dc:format>image/svg+xml</dc:format>
        <dc:type
           rdf:resource="http://purl.org/dc/dcmitype/StillImage" />
        <dc:title></dc:title>
      </cc:Work>
    </rdf:RDF>
  </metadata>
  <g
     inkscape:label="Layer 1"
     inkscape:groupmode="layer"
     id="layer1">
    <path
       style="fill:#000000;fill-opacity:1;stroke:none;stroke-width:4.28587008;stroke-miterlimit:4;stroke-dasharray:none"
       d="m 7.1104419,3.5169727 c -1.2451311,0 -2.2475292,1.0023981 -2.2475292,2.2475292 V 28.239794 c 0,1.245131 1.0023981,2.247529 2.2475292,2.247529 H 25.090676 c 1.245131,0 2.247529,-1.002398 2.247529,-2.247529 V 5.7645019 c 0,-1.2451311 -1.002398,-2.2475292 -2.247529,-2.2475292 h -3.107912 l 0.316059,0.1580294 0.07024,0.048287 c 0.934789,0.6621039 1.47809,1.2661799 1.643946,2.0082902 0.165846,0.7421103 -0.04599,1.2003407 -0.04609,1.2027793 l -0.0461,1.0776725 H 8.5173425 L 8.2802984,7.2043253 C 8.1742692,6.8430696 8.0117412,6.202567 8.2517653,5.509899 8.4917894,4.8172309 9.0360457,4.2501103 9.8627877,3.7035352 l 0.05487,-0.037313 0.2985003,-0.14925 z M 11.127023,11.67963 a 1.6500939,1.6763054 0 0 1 1.650529,1.674672 1.6500939,1.6763054 0 0 1 -1.650529,1.676868 1.6500939,1.6763054 0 0 1 -1.6505293,-1.676868 1.6500939,1.6763054 0 0 1 1.6505293,-1.674672 z m 4.639918,0.111937 h 6.742588 c 0.622566,0 1.123765,0.501199 1.123765,1.123765 v 0.752834 c 0,0.622566 -0.501199,1.123765 -1.123765,1.123765 h -6.742588 c -0.622565,0 -1.123764,-0.501199 -1.123764,-1.123765 v -0.752834 c 0,-0.622566 0.501199,-1.123765 1.123764,-1.123765 z m -4.718933,5.340077 a 1.6500939,1.6763054 0 0 1 1.650529,1.674673 1.6500939,1.6763054 0 0 1 -1.650529,1.676867 1.6500939,1.6763054 0 0 1 -1.6505303,-1.676867 1.6500939,1.6763054 0 0 1 1.6505303,-1.674673 z m 4.718933,0.07243 h 6.742588 c 0.622566,0 1.123765,0.501199 1.123765,1.123764 v 0.752834 c 0,0.622566 -0.501199,1.123765 -1.123765,1.123765 h -6.742588 c -0.622565,0 -1.123764,-0.501199 -1.123764,-1.123765 v -0.752834 c 0,-0.622565 0.501199,-1.123764 1.123764,-1.123764 z m -4.666257,5.326907 a 1.6500939,1.6763054 0 0 1 1.650529,1.674672 1.6500939,1.6763054 0 0 1 -1.650529,1.676868 1.6500939,1.6763054 0 0 1 -1.6505293,-1.676868 1.6500939,1.6763054 0 0 1 1.6505293,-1.674672 z m 4.666257,0.0834 h 6.742588 c 0.622566,0 1.123765,0.501199 1.123765,1.123764 v 0.752834 c 0,0.622565 -0.501199,1.123764 -1.123765,1.123764 h -6.742588 c -0.622565,0 -1.123764,-0.501199 -1.123764,-1.123764 v -0.752834 c 0,-0.622565 0.501199,-1.123764 1.123764,-1.123764 z"
       id="rect5076"
       inkscape:connector-curvature="0" />
    <path
       style="fill:#000000;fill-opacity:1;stroke:none;stroke-width:3.74849272;stroke-miterlimit:4;stroke-dasharray:none"
       d="m 13.287964,3.5869632 c 0,-2.81136947 5.622739,-2.81136947 5.622739,0 l 1.874246,0.9371232 c 1.392706,0.9864424 0.958187,1.3611322 0.937124,1.8742464 H 10.476594 C 10.318876,5.8609639 10.221302,5.3124155 11.413718,4.5240864 Z"
       id="rect5078"
       inkscape:connector-curvature="0"
       sodipodi:nodetypes="ccccccc" />
  </g>
</svg>
