<svg id="SVGRoot" version="1.1" viewBox="0 0 32 32" xmlns="http://www.w3.org/2000/svg">
 <g>
  <path d="m8.1035 0.33398c-3.8487 0-6.9688 3.12-6.9688 6.9688 0.00334 3.787 3.0303 6.8782 6.8164 6.9609 1.0511 0.87814 3.2503 2.6858 5.6094 4.5938l4.2852-3.8496-4.3145-3.3418c0.99566-1.2364 1.5393-2.7758 1.541-4.3633 0-3.8487-3.12-6.9688-6.9688-6.9688zm0.015625 3.2695c2.0008 4.83e-4 3.6226 1.6223 3.623 3.623 5.95e-4 2.0015-1.6215 3.6245-3.623 3.625-2.0023 5.96e-4 -3.6256-1.6227-3.625-3.625 4.834e-4 -2.0015 1.6235-3.6236 3.625-3.623zm11.908 13.092-4.4512 3.5996c3.569 2.8376 7.1164 5.7097 8.0586 5.9141 5.5093 1.1949 7.0625-1.25 7.0625-1.25z"/>
  <path d="m8.1045 31.771a6.9688 6.9688 0 0 1-6.9688-6.9688 6.9688 6.9688 0 0 1 6.8164-6.9609c2.8976-2.4208 13.917-11.562 15.684-11.945 5.5093-1.1949 7.0625 1.25 7.0625 1.25l-17.166 13.293a6.9688 6.9688 0 0 1 1.541 4.3633 6.9688 6.9688 0 0 1-6.9687 6.9688zm0.015625-3.2695a3.6239 3.6239 0 0 0 3.623-3.623 3.6239 3.6239 0 0 0-3.623-3.625 3.6239 3.6239 0 0 0-3.625 3.625 3.6239 3.6239 0 0 0 3.625 3.623z"/>
 </g>
</svg>
