<svg id="SVGRoot" version="1.1" viewBox="0 0 32 32" xmlns="http://www.w3.org/2000/svg">
 <g>
  <path d="m1 1v8h3v-5h5v-3zm12 0v3h6v-3zm10 0v3h5v5h3v-8zm-22 12v6h3v-6zm27 0v6h3v-6zm-27 10v8h8v-3h-5v-5zm27 0v5h-5v3h8v-8zm-15 5v3h6v-3z"/>
  <g transform="matrix(.86131 0 0 .86131 2.311 2.2125)" aria-label="D">
   <path d="m9.0156 7.0304h6.5852q2.2275 0 3.3961 0.34082 1.5702 0.46255 2.6901 1.6433 1.1198 1.1807 1.7041 2.897 0.58427 1.7041 0.58427 4.2116 0 2.2032-0.54775 3.7978-0.66948 1.9476-1.911 3.1526-0.93727 0.91292-2.5318 1.4242-1.1929 0.37734-3.1891 0.37734h-6.78zm3.603 3.0187v11.819h2.6901q1.5094 0 2.1788-0.17041 0.8764-0.2191 1.4485-0.74251 0.58427-0.52341 0.94944-1.7163 0.36517-1.2051 0.36517-3.2743 0-2.0693-0.36517-3.177-0.36517-1.1077-1.0225-1.7285-0.6573-0.62079-1.6676-0.83989-0.75468-0.17041-2.9579-0.17041z" stroke-width=".62322"/>
  </g>
 </g>
</svg>
