<svg id="SVGRoot" version="1.1" viewBox="0 0 32 32" xmlns="http://www.w3.org/2000/svg">
 <path d="m2.0643 17.923c-1.8483 1.8483-1.8483 4.8839 3e-7 6.7322l0.00128 0.0013 4.1417 4.1417 12.723-1e-6 11.282-11.279c1.8483-1.8483 1.8483-4.8865-1e-6 -6.7347l-7.1373-7.1374c-0.73814-0.73814-1.6813-1.1063-2.6471-1.2579l-0.14149-0.14149-0.57881-1e-7c-1.218-3e-7 -2.4437 0.47576-3.3674 1.3994zm1.9757 1.9757 7.4679-7.4679 9.9195 9.9195-3.6542 3.6542h-10.408l-3.3249-3.3249c-0.78786-0.78786-0.78786-1.993-3e-7 -2.7808z" color="#000000" color-rendering="auto" dominant-baseline="auto" image-rendering="auto" shape-rendering="auto" solid-color="#000000" style="font-feature-settings:normal;font-variant-alternates:normal;font-variant-caps:normal;font-variant-ligatures:normal;font-variant-numeric:normal;font-variant-position:normal;isolation:auto;mix-blend-mode:normal;shape-padding:0;text-decoration-color:#000000;text-decoration-line:none;text-decoration-style:solid;text-indent:0;text-orientation:mixed;text-transform:none;white-space:normal"/>
</svg>
