<svg id="SVGRoot" version="1.1" viewBox="0 0 32 32" xmlns="http://www.w3.org/2000/svg">
 <g>
  <path d="m18 1-10 4 12 6z"/>
  <path d="m14.734 5c-0.82524 0.70735-1.5451 1.4739-2.1758 2.2793l2.9668 1.4824c0.82171-1.3601 1.8909-2.6319 3.209-3.7617h-4zm-2.9199 3.3359c-3.0727 4.7091-3.0832 10.57-0.035156 15.285l3.1113-1.5605c-1.8686-3.865-1.862-8.2833 0.019531-12.146l-3.0957-1.5781zm3.7129 14.9-2.9648 1.4824c0.63019 0.80548 1.3464 1.5737 2.1719 2.2812h4c-1.3188-1.1304-2.3862-2.4031-3.207-3.7637z"/>
  <path d="m18 31-10-4 12-6z"/>
  <path d="m1 15.575h30v1.1603h-30z"/>
 </g>
</svg>
