<svg id="SVGRoot" version="1.1" viewBox="0 0 32 32" xmlns="http://www.w3.org/2000/svg">
 <g>
  <path d="m31 18-4-10-6 12z"/>
  <path d="m27 14.734c-0.70735-0.82524-1.4739-1.5451-2.2793-2.1758l-1.4824 2.9668c1.3601 0.82171 2.6319 1.8909 3.7617 3.209zm-3.3359-2.9199c-4.7091-3.0727-10.57-3.0832-15.285-0.035156l1.5605 3.1113c3.865-1.8686 8.2833-1.862 12.146 0.01953zm-14.9 3.7129-1.4824-2.9648c-0.80548 0.63019-1.5737 1.3464-2.2812 2.1719v4c1.1304-1.3188 2.4031-2.3862 3.7637-3.207z"/>
  <path d="m1 18 4-10 6 12z"/>
  <path d="m16.425 1v30h-1.1603v-30z"/>
 </g>
</svg>
