<?xml version="1.0" encoding="UTF-8" standalone="no"?>
<!-- Created with Inkscape (http://www.inkscape.org/) -->

<svg
   xmlns:dc="http://purl.org/dc/elements/1.1/"
   xmlns:cc="http://creativecommons.org/ns#"
   xmlns:rdf="http://www.w3.org/1999/02/22-rdf-syntax-ns#"
   xmlns:svg="http://www.w3.org/2000/svg"
   xmlns="http://www.w3.org/2000/svg"
   xmlns:sodipodi="http://sodipodi.sourceforge.net/DTD/sodipodi-0.dtd"
   xmlns:inkscape="http://www.inkscape.org/namespaces/inkscape"
   width="32px"
   height="32px"
   viewBox="0 0 32 32"
   version="1.1"
   id="SVGRoot"
   inkscape:version="0.92.4 (5da689c313, 2019-01-14)"
   sodipodi:docname="info.svg">
  <defs
     id="defs815" />
  <sodipodi:namedview
     id="base"
     pagecolor="#ffffff"
     bordercolor="#666666"
     borderopacity="1.0"
     inkscape:pageopacity="0.0"
     inkscape:pageshadow="2"
     inkscape:zoom="8"
     inkscape:cx="24.000137"
     inkscape:cy="0.69558423"
     inkscape:document-units="px"
     inkscape:current-layer="layer1"
     showgrid="false"
     inkscape:window-width="1920"
     inkscape:window-height="1017"
     inkscape:window-x="1912"
     inkscape:window-y="-8"
     inkscape:window-maximized="1"
     inkscape:grid-bbox="true">
    <inkscape:grid
       type="xygrid"
       id="grid1375" />
  </sodipodi:namedview>
  <metadata
     id="metadata818">
    <rdf:RDF>
      <cc:Work
         rdf:about="">
        <dc:format>image/svg+xml</dc:format>
        <dc:type
           rdf:resource="http://purl.org/dc/dcmitype/StillImage" />
        <dc:title></dc:title>
      </cc:Work>
    </rdf:RDF>
  </metadata>
  <g
     inkscape:label="Layer 1"
     inkscape:groupmode="layer"
     id="layer1">
    <path
       style="fill:#000000;fill-opacity:1;stroke:none;stroke-width:3.4545455;stroke-miterlimit:4;stroke-dasharray:none;stroke-opacity:1"
       d="M 16.125 1.75 A 14.25 14.25 0 0 0 1.875 16 A 14.25 14.25 0 0 0 16.125 30.25 A 14.25 14.25 0 0 0 30.375 16 A 14.25 14.25 0 0 0 16.125 1.75 z M 16.011719 6.2226562 A 2.3874473 2.3874473 0 0 1 18.400391 8.6113281 A 2.3874473 2.3874473 0 0 1 16.011719 10.998047 A 2.3874473 2.3874473 0 0 1 13.625 8.6113281 A 2.3874473 2.3874473 0 0 1 16.011719 6.2226562 z M 15.863281 12.279297 L 16.011719 12.279297 C 17.334365 12.279297 18.400391 13.34337 18.400391 14.666016 L 18.400391 24.169922 C 18.400391 25.492568 17.334365 26.556641 16.011719 26.556641 L 15.863281 26.556641 C 14.540635 26.556641 13.474609 25.492568 13.474609 24.169922 L 13.474609 14.666016 C 13.474609 13.34337 14.540635 12.279297 15.863281 12.279297 z "
       id="path1371" />
  </g>
</svg>
