<svg id="SVGRoot" version="1.1" viewBox="0 0 32 32" xmlns="http://www.w3.org/2000/svg">
 <path d="m16.125 1.75a14.25 14.25 0 0 0-14.25 14.25 14.25 14.25 0 0 0 14.25 14.25 14.25 14.25 0 0 0 14.25-14.25 14.25 14.25 0 0 0-14.25-14.25zm-0.11328 4.4727a2.3874 2.3874 0 0 1 2.3887 2.3887 2.3874 2.3874 0 0 1-2.3887 2.3867 2.3874 2.3874 0 0 1-2.3867-2.3867 2.3874 2.3874 0 0 1 2.3867-2.3887zm-0.14844 6.0566h0.14844c1.3226 0 2.3887 1.0641 2.3887 2.3867v9.5039c0 1.3226-1.066 2.3867-2.3887 2.3867h-0.14844c-1.3226 0-2.3887-1.0641-2.3887-2.3867v-9.5039c0-1.3226 1.066-2.3867 2.3887-2.3867z"/>
</svg>
