<?xml version="1.0" encoding="UTF-8" standalone="no"?>
<svg
   xmlns:dc="http://purl.org/dc/elements/1.1/"
   xmlns:cc="http://creativecommons.org/ns#"
   xmlns:rdf="http://www.w3.org/1999/02/22-rdf-syntax-ns#"
   xmlns:svg="http://www.w3.org/2000/svg"
   xmlns="http://www.w3.org/2000/svg"
   xmlns:sodipodi="http://sodipodi.sourceforge.net/DTD/sodipodi-0.dtd"
   xmlns:inkscape="http://www.inkscape.org/namespaces/inkscape"
   id="SVGRoot"
   version="1.1"
   viewBox="0 0 32.0 32.0"
   height="32.0px"
   width="32.0px"
   sodipodi:docname="lock-locked.svg"
   inkscape:version="1.0 (4035a4fb49, 2020-05-01)">
  <defs
     id="defs833" />
  <sodipodi:namedview
     inkscape:snap-grids="false"
     id="base"
     pagecolor="#ffffff"
     bordercolor="#666666"
     borderopacity="1.0"
     inkscape:pageopacity="0.0"
     inkscape:pageshadow="2"
     inkscape:zoom="7.9195959"
     inkscape:cx="16.7772"
     inkscape:cy="41.689331"
     inkscape:document-units="px"
     inkscape:current-layer="layer1"
     inkscape:document-rotation="0"
     showgrid="true"
     inkscape:window-width="1920"
     inkscape:window-height="1017"
     inkscape:window-x="-8"
     inkscape:window-y="-8"
     inkscape:window-maximized="1"
     showguides="true">
    <inkscape:grid
       id="grid1403"
       type="xygrid" />
  </sodipodi:namedview>
  <metadata
     id="metadata836">
    <rdf:RDF>
      <cc:Work
         rdf:about="">
        <dc:format>image/svg+xml</dc:format>
        <dc:type
           rdf:resource="http://purl.org/dc/dcmitype/StillImage" />
        <dc:title></dc:title>
      </cc:Work>
    </rdf:RDF>
  </metadata>
  <g
     inkscape:label="Layer 1"
     inkscape:groupmode="layer"
     id="layer1">
    <path
       d="M 8 13 C 6.338 13 5 14.338 5 16 L 5 27 C 5 28.662 6.338 30 8 30 L 24 30 C 25.662 30 27 28.662 27 27 L 27 16 C 27 14.338 25.662 13 24 13 L 8 13 z M 15.947266 18 A 3 3 0 0 1 15.949219 18 A 3 3 0 0 1 16 18 A 3 3 0 0 1 19 21 A 3 3 0 0 1 17.5 23.597656 L 17.5 25.259766 C 17.5 25.828606 17.041496 26.285156 16.472656 26.285156 L 15.527344 26.285156 C 14.958504 26.285156 14.5 25.828606 14.5 25.259766 L 14.5 23.597656 A 3 3 0 0 1 13 21 A 3 3 0 0 1 15.947266 18 z "
       style="fill:#000000;fill-opacity:1;stroke:none"
       id="rect855" />
    <path
       sodipodi:nodetypes="ssccsssccss"
       d="M 16.263393,6.1877788 C 12.294728,6.1571598 9.7335702,8.1795022 8.6755023,10.746373 8.3809653,11.460919 8.1426813,13.185582 8,13.9375 h 3.080078 c 0.08954,-0.379352 0.236281,-1.724956 0.368861,-2.046596 0.710426,-1.723492 1.685725,-2.7270833 4.791016,-2.7031252 3.029908,0.023377 3.985124,1.0213492 4.681641,2.7363282 0.696517,1.714979 0.755859,4.316406 0.755859,6.816406 h 3 c 0,-2.5 0.05843,-5.396932 -0.976562,-7.945312 -1.034992,-2.5483803 -3.541374,-4.5773625 -7.4375,-4.6074222 z"
       style="color:#000000;font-style:normal;font-variant:normal;font-weight:normal;font-stretch:normal;font-size:medium;line-height:normal;font-family:sans-serif;font-variant-ligatures:normal;font-variant-position:normal;font-variant-caps:normal;font-variant-numeric:normal;font-variant-alternates:normal;font-variant-east-asian:normal;font-feature-settings:normal;font-variation-settings:normal;text-indent:0;text-align:start;text-decoration:none;text-decoration-line:none;text-decoration-style:solid;text-decoration-color:#000000;letter-spacing:normal;word-spacing:normal;text-transform:none;writing-mode:lr-tb;direction:ltr;text-orientation:mixed;dominant-baseline:auto;baseline-shift:baseline;text-anchor:start;white-space:normal;shape-padding:0;shape-margin:0;inline-size:0;clip-rule:nonzero;display:inline;overflow:visible;visibility:visible;opacity:1;isolation:auto;mix-blend-mode:normal;color-interpolation:sRGB;color-interpolation-filters:linearRGB;solid-color:#000000;solid-opacity:1;vector-effect:none;fill:#000000;fill-opacity:1;fill-rule:nonzero;stroke:none;stroke-width:3;stroke-linecap:butt;stroke-linejoin:miter;stroke-miterlimit:4;stroke-dasharray:none;stroke-dashoffset:0;stroke-opacity:1;color-rendering:auto;image-rendering:auto;shape-rendering:auto;text-rendering:auto;enable-background:accumulate;stop-color:#000000;stop-opacity:1"
       id="path861" />
  </g>
</svg>
