<svg id="SVGRoot" width="32px" height="32px" version="1.1" viewBox="0 0 32 32" xmlns="http://www.w3.org/2000/svg">
 <g>
  <path d="m8 13c-1.662 0-3 1.338-3 3v11c0 1.662 1.338 3 3 3h16c1.662 0 3-1.338 3-3v-11c0-1.662-1.338-3-3-3h-16zm7.9473 5a3 3 0 0 1 0.001953 0 3 3 0 0 1 0.050781 0 3 3 0 0 1 3 3 3 3 0 0 1-1.5 2.5977v1.6621c0 0.56884-0.4585 1.0254-1.0273 1.0254h-0.94531c-0.56884 0-1.0273-0.45655-1.0273-1.0254v-1.6621a3 3 0 0 1-1.5-2.5977 3 3 0 0 1 2.9473-3z"/>
  <path d="m16.263 6.1878c-3.9687-0.030619-6.5298 1.9917-7.5879 4.5586-0.29454 0.71455-0.53282 2.4392-0.6755 3.1911h3.0801c0.08954-0.37935 0.23628-1.725 0.36886-2.0466 0.71043-1.7235 1.6857-2.7271 4.791-2.7031 3.0299 0.023377 3.9851 1.0213 4.6816 2.7363s0.75586 4.3164 0.75586 6.8164h3c0-2.5 0.05843-5.3969-0.97656-7.9453-1.035-2.5484-3.5414-4.5774-7.4375-4.6074z" color="#000000" color-rendering="auto" dominant-baseline="auto" image-rendering="auto" shape-rendering="auto" solid-color="#000000" stop-color="#000000" style="font-feature-settings:normal;font-variant-alternates:normal;font-variant-caps:normal;font-variant-east-asian:normal;font-variant-ligatures:normal;font-variant-numeric:normal;font-variant-position:normal;font-variation-settings:normal;inline-size:0;isolation:auto;mix-blend-mode:normal;shape-margin:0;shape-padding:0;text-decoration-color:#000000;text-decoration-line:none;text-decoration-style:solid;text-indent:0;text-orientation:mixed;text-transform:none;white-space:normal"/>
 </g>
</svg>
