<svg id="SVGRoot" version="1.1" viewBox="0 0 32 32" xmlns="http://www.w3.org/2000/svg">
 <path d="m20.824 0.73633c-0.86824-0.0014326-1.7359 0.33177-2.3945 1.002l-10.729 10.916c-1.3173 1.3404-2.3883 4.4016-1.375 5.9844 0.48218 0.75315 0.9904 1.4627 1.5215 2.1309l-0.35352 0.35352-0.29883-0.29883c-0.30263-0.30263-0.78917-0.30262-1.0918 0l-1.9707 1.9707c-0.30262 0.30262-0.30262 0.79112 0 1.0938l3.9785 3.9766c0.30262 0.30262 0.78917 0.30262 1.0918 0l1.9707-1.9707c0.30262-0.30262 0.30262-0.78917 0-1.0918l-0.29883-0.29883 0.33594-0.33594c0.68761 0.55175 1.4018 1.0559 2.1484 1.5039 1.6115 0.96702 4.8545 0.15286 6.1719-1.1875l10.729-10.916c1.3173-1.3404 1.3289-3.468 0-4.7969l-7.0332-7.0332c-0.66445-0.66445-1.5341-1.0005-2.4023-1.002zm-16.896 23.953c-1.0658 1.7423-2.9745 3.6062-3.3086 6.0801l0.61133 0.61133c2.4277-0.33593 4.5201-2.3875 6.0781-3.3105zm4.0451 4.9761c-1.3508 0.94694-2.3343 1.492-3.1699 1.877 0.24295 0.20459 0.58071 0.33203 0.95703 0.33203h17.826c0.74238 0 1.3398-0.49338 1.3398-1.1055 0-0.61209-0.59747-1.1035-1.3398-1.1035z"/>
</svg>
