<svg id="SVGRoot" version="1.1" viewBox="0 0 32 32" xmlns="http://www.w3.org/2000/svg">
 <g>
  <path d="m1 1v8h3v-5h5v-3zm12 0v3h6v-3zm10 0v3h5v5h3v-8zm-22 12v6h3v-6zm27 0v6h3v-6zm-27 10v8h8v-3h-5v-5zm27 0v5h-5v3h8v-8zm-15 5v3h6v-3z"/>
  <text x="-39.59798" y="20.155962" fill="#000000" font-family="sans-serif" font-size="40px" letter-spacing="0px" word-spacing="0px" style="line-height:1.25" xml:space="preserve"><tspan x="-39.59798" y="56.649174" font-family="sans-serif" font-weight="bold"/></text>
  <g transform="translate(-.53033)" aria-label="A">
   <path d="m24.488 23.691h-3.5416l-1.4079-3.6626h-6.4453l-1.3309 3.6626h-3.4536l6.2803-16.124h3.4426zm-5.9944-6.3793-2.2218-5.9834-2.1778 5.9834z" stroke-width=".56314"/>
  </g>
 </g>
</svg>
