<svg id="SVGRoot" width="32px" height="32px" version="1.1" viewBox="0 0 32 32" xmlns="http://www.w3.org/2000/svg">
 <g>
  <path d="m7 9v19c0 1.108 0.892 2 2 2h14c1.108 0 2-0.892 2-2v-19h-18zm3.5 2c0.831 0 1.5 0.669 1.5 1.5v14c0 0.831-0.669 1.5-1.5 1.5s-1.5-0.669-1.5-1.5v-14c0-0.831 0.669-1.5 1.5-1.5zm11 0c0.831 0 1.5 0.669 1.5 1.5v14c0 0.831-0.669 1.5-1.5 1.5s-1.5-0.669-1.5-1.5v-14c0-0.831 0.669-1.5 1.5-1.5zm-5.5 0.03125c0.831 0 1.5 0.669 1.5 1.5v14c0 0.831-0.669 1.5-1.5 1.5s-1.5-0.669-1.5-1.5v-14c0-0.831 0.669-1.5 1.5-1.5z"/>
  <path d="m15.959 2.2305c-1.2525 0.005474-2.4794 0.25517-2.959 0.76953-0.53133 0.56985-0.77196 1.3648-0.88867 2h-5.6113c-0.831 0-1.5 0.669-1.5 1.5s0.669 1.5 1.5 1.5h19c0.831 0 1.5-0.669 1.5-1.5s-0.669-1.5-1.5-1.5h-5.625c-0.12037-0.75769-0.34633-1.7093-0.80273-2.0723-0.58307-0.46374-1.8608-0.70274-3.1133-0.69727z"/>
 </g>
</svg>
