<?xml version="1.0" encoding="UTF-8" standalone="no"?>
<svg
   xmlns:dc="http://purl.org/dc/elements/1.1/"
   xmlns:cc="http://creativecommons.org/ns#"
   xmlns:rdf="http://www.w3.org/1999/02/22-rdf-syntax-ns#"
   xmlns:svg="http://www.w3.org/2000/svg"
   xmlns="http://www.w3.org/2000/svg"
   xmlns:sodipodi="http://sodipodi.sourceforge.net/DTD/sodipodi-0.dtd"
   xmlns:inkscape="http://www.inkscape.org/namespaces/inkscape"
   sodipodi:docname="trash.svg"
   inkscape:version="1.0 (4035a4fb49, 2020-05-01)"
   width="32.0px"
   height="32.0px"
   viewBox="0 0 32.0 32.0"
   version="1.1"
   id="SVGRoot">
  <defs
     id="defs10" />
  <sodipodi:namedview
     inkscape:snap-global="false"
     showguides="false"
     inkscape:window-maximized="1"
     inkscape:window-y="-8"
     inkscape:window-x="1912"
     inkscape:window-height="1017"
     inkscape:window-width="1920"
     showgrid="false"
     inkscape:document-rotation="0"
     inkscape:current-layer="layer1"
     inkscape:document-units="px"
     inkscape:cy="-3.7683706"
     inkscape:cx="3.4972783"
     inkscape:zoom="2.4379562"
     inkscape:pageshadow="2"
     inkscape:pageopacity="0.0"
     borderopacity="1.0"
     bordercolor="#666666"
     pagecolor="#ffffff"
     id="base">
    <inkscape:grid
       empspacing="5"
       type="xygrid"
       id="grid19" />
  </sodipodi:namedview>
  <metadata
     id="metadata13">
    <rdf:RDF>
      <cc:Work
         rdf:about="">
        <dc:format>image/svg+xml</dc:format>
        <dc:type
           rdf:resource="http://purl.org/dc/dcmitype/StillImage" />
        <dc:title></dc:title>
      </cc:Work>
    </rdf:RDF>
  </metadata>
  <g
     id="layer1"
     inkscape:groupmode="layer"
     inkscape:label="Layer 1">
    <path
       d="M 7 9 L 7 28 C 7 29.108 7.892 30 9 30 L 23 30 C 24.108 30 25 29.108 25 28 L 25 9 L 7 9 z M 10.5 11 C 11.331 11 12 11.669 12 12.5 L 12 26.5 C 12 27.331 11.331 28 10.5 28 C 9.669 28 9 27.331 9 26.5 L 9 12.5 C 9 11.669 9.669 11 10.5 11 z M 21.5 11 C 22.331 11 23 11.669 23 12.5 L 23 26.5 C 23 27.331 22.331 28 21.5 28 C 20.669 28 20 27.331 20 26.5 L 20 12.5 C 20 11.669 20.669 11 21.5 11 z M 16 11.03125 C 16.831 11.03125 17.5 11.70025 17.5 12.53125 L 17.5 26.53125 C 17.5 27.36225 16.831 28.03125 16 28.03125 C 15.169 28.03125 14.5 27.36225 14.5 26.53125 L 14.5 12.53125 C 14.5 11.70025 15.169 11.03125 16 11.03125 z "
       style="fill:#000000;fill-opacity:1;stroke:none;stroke-width:6;stroke-miterlimit:4;stroke-dasharray:none"
       id="rect873" />
    <path
       d="M 15.958984 2.2304688 C 14.706519 2.2359428 13.479584 2.4856413 13 3 C 12.468673 3.5698534 12.228036 4.3647757 12.111328 5 L 6.5 5 C 5.669 5 5 5.669 5 6.5 C 5 7.331 5.669 8 6.5 8 L 25.5 8 C 26.331 8 27 7.331 27 6.5 C 27 5.669 26.331 5 25.5 5 L 19.875 5 C 19.75463 4.2423076 19.528668 3.2907364 19.072266 2.9277344 C 18.4892 2.4639894 17.211449 2.2249947 15.958984 2.2304688 z "
       style="fill:#000000;fill-opacity:1;stroke:none;stroke-width:6;stroke-miterlimit:4;stroke-dasharray:none"
       id="rect899" />
  </g>
</svg>
