<?xml version="1.0" encoding="UTF-8" standalone="no"?>
<svg
   xmlns:dc="http://purl.org/dc/elements/1.1/"
   xmlns:cc="http://creativecommons.org/ns#"
   xmlns:rdf="http://www.w3.org/1999/02/22-rdf-syntax-ns#"
   xmlns:svg="http://www.w3.org/2000/svg"
   xmlns="http://www.w3.org/2000/svg"
   xmlns:sodipodi="http://sodipodi.sourceforge.net/DTD/sodipodi-0.dtd"
   xmlns:inkscape="http://www.inkscape.org/namespaces/inkscape"
   inkscape:version="1.0 (4035a4fb49, 2020-05-01)"
   sodipodi:docname="world.svg"
   width="32.0px"
   height="32.0px"
   viewBox="0 0 32.0 32.0"
   version="1.1"
   id="SVGRoot">
  <defs
     id="defs833" />
  <sodipodi:namedview
     showguides="true"
     inkscape:window-maximized="1"
     inkscape:window-y="-8"
     inkscape:window-x="-8"
     inkscape:window-height="1017"
     inkscape:window-width="1920"
     showgrid="false"
     inkscape:document-rotation="0"
     inkscape:current-layer="layer1"
     inkscape:document-units="px"
     inkscape:cy="34.339034"
     inkscape:cx="10.942991"
     inkscape:zoom="5.6"
     inkscape:pageshadow="2"
     inkscape:pageopacity="0.0"
     borderopacity="1.0"
     bordercolor="#666666"
     pagecolor="#ffffff"
     id="base">
    <inkscape:grid
       type="xygrid"
       id="grid1403" />
  </sodipodi:namedview>
  <metadata
     id="metadata836">
    <rdf:RDF>
      <cc:Work
         rdf:about="">
        <dc:format>image/svg+xml</dc:format>
        <dc:type
           rdf:resource="http://purl.org/dc/dcmitype/StillImage" />
        <dc:title></dc:title>
      </cc:Work>
    </rdf:RDF>
  </metadata>
  <g
     id="layer1"
     inkscape:groupmode="layer"
     inkscape:label="Layer 1">
    <path
       d="M 30,16 A 14,14 0 0 1 16,30 14,14 0 0 1 2,16 14,14 0 0 1 16,2 14,14 0 0 1 30,16 Z"
       style="fill:none;stroke:#000000;stroke-width:2;stroke-miterlimit:4;stroke-dasharray:none;stroke-opacity:1"
       id="path1416" />
    <path
       sodipodi:nodetypes="ssssssssssssssssssssssssssss"
       d="m 13.763392,3.84375 c 1.209575,0.8212624 -0.673903,2.3456786 -0.901352,3.2080149 -0.230397,0.8735163 -0.489376,2.4681917 -1.687551,2.2223691 -0.777182,-0.15945 -1.045206,0.1554754 -0.576609,0.872462 0.574018,0.878288 0.20491,3.171052 -0.7943096,3.210547 C 9.2388393,13.379464 8.9273931,12.522086 8.7589285,11.866072 8.657622,11.471576 8.4183235,10.468341 7.907743,11.128606 c -0.6989092,0.903805 -0.4979769,2.217507 -0.037207,3.239702 0.4939339,1.095768 1.5437227,1.530273 2.555654,1.866739 0.914939,0.304216 2.111477,0.267553 2.840216,0.88865 0.638072,0.543822 0.94649,1.58119 1.625503,2.064201 0.797876,0.567564 1.806708,1.033504 2.211017,1.974438 0.544143,1.266363 -0.810475,1.959471 -1.606371,2.642667 -0.804083,0.690223 -1.181216,1.571545 -1.532892,2.585003 -0.375543,1.082239 -1.2642,2.093002 -2.584951,2.221696 C 10.281007,28.718663 9.6955909,28.121299 9.4207769,27.138779 9.1136383,26.040692 9.4032714,25.002943 9.4958891,23.928771 9.5856285,22.887982 7.8929724,22.58059 7.4598442,21.542529 7.0217018,20.49245 6.5440926,19.157041 6.9956108,18.05889 7.1981219,17.566357 7.8807148,17.350288 6.8730201,16.169163 6.3069875,15.505713 5.8303996,15.579596 5.0075333,14.982586 4.345923,14.502571 3.9439222,14.09916 3.8926005,13.24847 3.8308919,12.225611 3.4730526,10.74389 3.6712039,9.7430097 3.8982692,8.5960841 4.7062741,7.604325 5.3143648,6.6186595 6.0144319,5.4839077 6.9988068,5.0566694 8.1568275,4.5782988 8.6233623,4.3855764 9.7325236,3.3942993 9.8209406,3.7305277 9.9093606,4.0667629 11.670244,2.4225691 12.160026,2.7551151 Z"
       style="fill:#000000;fill-opacity:1;stroke:none;stroke-width:1px;stroke-linecap:butt;stroke-linejoin:miter;stroke-opacity:1"
       id="path1418" />
    <path
       sodipodi:nodetypes="cssssssssssssc"
       d="m 25.580357,5.4910714 c -0.238225,0.4942874 -0.504224,0.340966 -0.773641,0.824814 -0.205886,0.3697519 -0.604482,1.6396948 -1.025095,1.283064 -0.511244,-0.4334751 -1.302068,-0.3365061 -2.112,0.1323978 -0.777676,0.45023 -1.176611,1.0395974 -1.204565,1.8475899 -0.0461,1.3325539 -0.03873,1.2092089 0.745182,2.0984039 0.355599,0.403358 1.317763,0.762195 1.895786,0.832675 0.453619,0.05531 1.456838,0.07967 1.839146,-0.224308 0.70415,-0.559868 0.164296,-1.579896 1.247491,-2.212283 0.46607,-0.2720998 1.005716,0.171921 1.507323,0.223398 0.408882,0.04196 0.697323,-0.3611166 0.701102,-0.7485884 C 28.406186,9.0239429 28.124024,8.568764 28.024148,8.0655438 27.893697,7.408273 27.618399,6.6795783 26.973687,6.3614068 26.908367,6.3291728 26.847042,6.2893308 26.785715,6.2499901"
       style="fill:#000000;fill-opacity:1;stroke:none;stroke-width:1px;stroke-linecap:butt;stroke-linejoin:miter;stroke-opacity:1"
       id="path1422" />
    <path
       sodipodi:nodetypes="csccsssssc"
       d="m 29.294424,15.152288 c -1.086068,0.207016 -1.868632,-0.835249 -2.877447,-1.119604 -1.426026,-0.401954 -3.432309,-0.482017 -4.161893,-0.166564 -2.079438,1.266264 -2.577421,4.047322 -2.284614,5.55786 0.320342,1.505096 2.085837,1.352548 2.724851,2.143976 0.688176,0.852316 1.154994,1.107967 1.646637,1.805767 0.617801,0.876858 -0.817891,1.689073 -0.532557,2.659879 0.207232,0.705078 0.981658,-0.295921 1.304052,-0.570484 1.458005,-1.241691 2.532568,-3.068651 4.293015,-3.821244 l 0.06807,-0.0291"
       style="fill:#000000;fill-opacity:1;stroke:none;stroke-width:1px;stroke-linecap:butt;stroke-linejoin:miter;stroke-opacity:1"
       id="path1443" />
  </g>
</svg>
