<svg id="SVGRoot" width="32px" height="32px" version="1.1" viewBox="0 0 32 32" xmlns="http://www.w3.org/2000/svg">
 <path d="m30 16a14 14 0 0 1-14 14 14 14 0 0 1-14-14 14 14 0 0 1 14-14 14 14 0 0 1 14 14z" fill="none" stroke="#000" stroke-width="2"/>
 <g>
  <path d="m13.763 3.8438c1.2096 0.82126-0.6739 2.3457-0.90135 3.208-0.2304 0.87352-0.48938 2.4682-1.6876 2.2224-0.77718-0.15945-1.0452 0.15548-0.57661 0.87246 0.57402 0.87829 0.20491 3.1711-0.79431 3.2105-0.56473 0.022321-0.87618-0.83506-1.0446-1.4911-0.10131-0.3945-0.3406-1.3977-0.85119-0.73747-0.69891 0.9038-0.49798 2.2175-0.037207 3.2397 0.49393 1.0958 1.5437 1.5303 2.5557 1.8667 0.91494 0.30422 2.1115 0.26755 2.8402 0.88865 0.63807 0.54382 0.94649 1.5812 1.6255 2.0642 0.79788 0.56756 1.8067 1.0335 2.211 1.9744 0.54414 1.2664-0.81048 1.9595-1.6064 2.6427-0.80408 0.69022-1.1812 1.5715-1.5329 2.585-0.37554 1.0822-1.2642 2.093-2.585 2.2217-1.0977 0.10696-1.6831-0.4904-1.9579-1.4729-0.30714-1.0981-0.017506-2.1358 0.075112-3.21 0.089739-1.0408-1.6029-1.3482-2.036-2.3862-0.43814-1.0501-0.91575-2.3855-0.46423-3.4836 0.20251-0.49253 0.8851-0.7086-0.12259-1.8897-0.56603-0.66345-1.0426-0.58957-1.8655-1.1866-0.66161-0.48002-1.0636-0.88343-1.1149-1.7341-0.061709-1.0229-0.41955-2.5046-0.2214-3.5055 0.22707-1.1469 1.0351-2.1387 1.6432-3.1244 0.70007-1.1348 1.6844-1.562 2.8425-2.0404 0.46653-0.19272 1.5757-1.184 1.6641-0.84777 0.08842 0.33624 1.8493-1.308 2.3391-0.97541z"/>
  <path d="m25.58 5.4911c-0.23822 0.49429-0.50422 0.34097-0.77364 0.82481-0.20589 0.36975-0.60448 1.6397-1.0251 1.2831-0.51124-0.43348-1.3021-0.33651-2.112 0.1324-0.77768 0.45023-1.1766 1.0396-1.2046 1.8476-0.0461 1.3326-0.03873 1.2092 0.74518 2.0984 0.3556 0.40336 1.3178 0.7622 1.8958 0.83268 0.45362 0.05531 1.4568 0.07967 1.8391-0.22431 0.70415-0.55987 0.1643-1.5799 1.2475-2.2123 0.46607-0.2721 1.0057 0.17192 1.5073 0.2234 0.40888 0.04196 0.69732-0.36112 0.7011-0.74859 0.0051-0.52429-0.27706-0.97947-0.37694-1.4827-0.13045-0.65727-0.40575-1.386-1.0505-1.7041-0.06532-0.032234-0.12664-0.072076-0.18797-0.11142"/>
  <path d="m29.294 15.152c-1.0861 0.20702-1.8686-0.83525-2.8774-1.1196-1.426-0.40195-3.4323-0.48202-4.1619-0.16656-2.0794 1.2663-2.5774 4.0473-2.2846 5.5579 0.32034 1.5051 2.0858 1.3525 2.7249 2.144 0.68818 0.85232 1.155 1.108 1.6466 1.8058 0.6178 0.87686-0.81789 1.6891-0.53256 2.6599 0.20723 0.70508 0.98166-0.29592 1.3041-0.57048 1.458-1.2417 2.5326-3.0687 4.293-3.8212l0.06807-0.0291"/>
 </g>
</svg>
